<svg width="168" height="40" viewBox="0 0 168 40" fill="none" xmlns="http://www.w3.org/2000/svg">
<path d="M18.3275 12.0066C20.1385 11.9912 21.9055 12.5624 23.3628 13.6341L20.6784 16.3098C19.9679 15.8872 19.1549 15.6662 18.3275 15.6707C17.7367 15.6604 17.1497 15.7673 16.6008 15.9853C16.0519 16.2032 15.552 16.5279 15.1302 16.9404C14.7107 17.3279 14.3775 17.799 14.1522 18.323C13.9269 18.847 13.8145 19.4123 13.8222 19.9824C13.8082 20.5622 13.9175 21.1383 14.1429 21.6729C14.3683 22.2075 14.7048 22.6885 15.1302 23.0841C15.5499 23.4945 16.0471 23.818 16.5929 24.0359C17.1387 24.2538 17.7224 24.3619 18.3104 24.3538C19.0257 24.3541 19.7312 24.1878 20.3707 23.8681L23.0978 26.4926C21.6923 27.4474 20.0283 27.9527 18.3275 27.9412C17.2431 27.9645 16.165 27.7732 15.1553 27.3783C14.1457 26.9834 13.2248 26.3927 12.4458 25.6405C11.6612 24.9224 11.0378 24.0471 10.6165 23.072C10.1951 22.0969 9.98529 21.044 10.0008 19.9824C9.98837 18.925 10.1997 17.8769 10.621 16.9064C11.0423 15.9359 11.6641 15.0648 12.4458 14.3499C13.2213 13.59 14.1407 12.9915 15.1504 12.5892C16.1602 12.1869 17.2402 11.9889 18.3275 12.0066Z" fill="#FAF5F5"/>
<path d="M36.1942 24.4978L35.7838 24.2507L38.2117 21.8136L36.8353 18.5415L32.9798 27.9659H28.748L35.3564 12.0057H38.3143L44.9226 27.9574H40.6482L39.2119 24.4893L36.1942 24.4978Z" fill="#FAF5F5"/>
<path d="M49.7363 12.0057H62.6623V16.0277H58.1998V27.9574H54.1647V18.6608V18.5244L57.02 16.0277H49.7363V12.0057Z" fill="#FAF5F5"/>
<path d="M74.8092 24.4978L74.3988 24.2507L76.8438 21.8136L75.4503 18.5415L71.5948 27.9659H67.3203L73.9714 12.0057H76.9208L83.5205 27.9659H79.2461L77.8099 24.4978H74.8092Z" fill="#FAF5F5"/>
<path d="M88.959 12.0057H93.0539V24.191H99.7648L100.073 24.6938L96.7984 27.9574H88.959V12.0057Z" fill="#FAF5F5"/>
<path d="M105.682 12.0057H110.366L113.632 16.556L116.77 12.0057H121.523L115.581 20.5269V28H111.427V20.5269L105.682 12.0057Z" fill="#FAF5F5"/>
<path d="M128.054 22.5294H131.91C131.892 22.7714 131.94 23.0138 132.048 23.2311C132.156 23.4485 132.321 23.6328 132.525 23.765C132.913 24.008 133.367 24.1269 133.825 24.1058C134.263 24.0968 134.691 23.9702 135.064 23.7394C135.223 23.6524 135.351 23.5171 135.427 23.3531C135.504 23.1892 135.527 23.0052 135.492 22.8276C135.451 22.5649 135.318 22.3253 135.115 22.1519C134.913 21.9785 134.656 21.8827 134.389 21.8818C133.773 21.8307 133.098 21.7625 132.363 21.6773C131.689 21.6566 131.03 21.4804 130.437 21.1624C129.843 20.8445 129.332 20.3936 128.943 19.8452C128.37 19.0452 128.035 18.1 127.977 17.1185C127.945 16.4181 128.084 15.7204 128.382 15.0852C128.68 14.45 129.127 13.8963 129.687 13.4714C130.753 12.598 132.071 12.0848 133.448 12.0057C134.851 11.9462 136.233 12.3507 137.381 13.1561C138.025 13.6285 138.551 14.2424 138.919 14.9502C139.287 15.6581 139.486 16.4408 139.501 17.2377H135.509C135.534 17.0402 135.505 16.8394 135.424 16.6575C135.342 16.4755 135.212 16.3195 135.047 16.2067C134.706 15.9621 134.304 15.8148 133.884 15.7806C133.462 15.7426 133.038 15.816 132.653 15.9937C132.481 16.0649 132.332 16.1822 132.221 16.3324C132.111 16.4827 132.045 16.6603 132.029 16.8458C132.115 17.6127 132.508 17.9791 133.209 17.945C134.014 17.9177 134.82 17.9806 135.611 18.1325C136.188 18.2262 136.739 18.4325 137.235 18.7396C137.731 19.0467 138.161 19.4485 138.501 19.9219C139.199 20.8297 139.58 21.9397 139.587 23.0833C139.576 24.2344 139.158 25.3448 138.407 26.2191C137.405 27.289 136.019 27.9201 134.551 27.9744C133.953 28.0229 133.352 27.9856 132.765 27.8637C131.991 27.7076 131.251 27.4193 130.576 27.0115C129.843 26.5908 129.217 26.0077 128.747 25.3073C128.222 24.4797 127.979 23.5055 128.054 22.5294Z" fill="#FAF5F5"/>
<path d="M145.074 12.0057H158V16.0277H153.538V27.9574H149.503V18.6608V18.5244L152.315 16.0277H145.074V12.0057Z" fill="#FAF5F5"/>
</svg>
